<svg xmlns="http://www.w3.org/2000/svg" xmlns:xlink="http://www.w3.org/1999/xlink" width="57" height="39" viewBox="0 0 57 39"><defs><path id="yq8sa" d="M164.9 33.84a3.92 3.92 0 0 1-2.55 3.12l-6.15 2.24.95-6.13a3.92 3.92 0 0 1 2.35-3c2.78-1.18 5.82.73 5.4 3.77zm-20.52 9.7c-1.4.49-2.89.18-3.95-.8a3.86 3.86 0 0 1 1.44-6.62 3.83 3.83 0 0 1 3.76.8l4.9 4.33zm13.68-17a7.77 7.77 0 0 0-4.68 5.96l-.87 5.45-4.37-3.88a7.71 7.71 0 1 0-2.47 13.03l5.81-2.12 3.12-1.14 9.04-3.3a7.7 7.7 0 0 0 5.02-6.16c.84-5.9-5.1-10.16-10.6-7.84z"/><path id="yq8sb" d="M144.38 43.53c-1.4.5-2.89.2-3.95-.8a3.86 3.86 0 0 1 1.44-6.6 3.83 3.83 0 0 1 3.76.8l4.9 4.32zm8.13-5.58l-4.37-3.88a7.71 7.71 0 1 0-2.47 13.03l5.81-2.12 3.12-1.14z"/><path id="yq8sc" d="M185.16 44.84l-3.25-8.92a5.67 5.67 0 0 0-7.3-3.4l-16.08 5.84-1.42 6.54 6.62 7.74z"/><path id="yq8se" d="M147.82 42.26l-16.07 5.85a5.67 5.67 0 0 0-3.4 7.3l3.25 8.93 21.42-7.8 1.32-6.82z"/><path id="yq8sg" d="M163.72 52.65l-5.36 1.94-5.36 1.94-5.16-14.29 1.67-.6 3.8-1.37 5.24-1.9z"/><path id="yq8si" d="M158.36 54.6L153 56.52l-5.16-14.29 1.67-.6 3.8-1.37z"/><linearGradient id="yq8sd" x1="171.13" x2="171.13" y1="32.16" y2="52.64" gradientUnits="userSpaceOnUse"><stop offset="0" stop-color="#20b7fa"/><stop offset="1" stop-color="#20ebdd"/></linearGradient><linearGradient id="yq8sf" x1="141.17" x2="141.17" y1="42.25" y2="64.33" gradientUnits="userSpaceOnUse"><stop offset="0" stop-color="#20b7fa"/><stop offset="1" stop-color="#20ebdd"/></linearGradient><linearGradient id="yq8sh" x1="155.78" x2="155.78" y1="38.36" y2="56.52" gradientUnits="userSpaceOnUse"><stop offset="0" stop-color="#beebff"/><stop offset="1" stop-color="#95fff8"/></linearGradient><linearGradient id="yq8sj" x1="153.1" x2="153.1" y1="40.26" y2="56.52" gradientUnits="userSpaceOnUse"><stop offset="0" stop-color="#beebff"/><stop offset="1" stop-color="#95fff8"/></linearGradient></defs><g><g transform="translate(-128 -26)"><use fill="#20ebdd" xlink:href="#yq8sa"/></g><g transform="translate(-128 -26)"><use fill="#20ebdd" xlink:href="#yq8sb"/></g><g transform="translate(-128 -26)"><use fill="url(#yq8sd)" xlink:href="#yq8sc"/></g><g transform="translate(-128 -26)"><use fill="url(#yq8sf)" xlink:href="#yq8se"/></g><g transform="translate(-128 -26)"><use fill="url(#yq8sh)" xlink:href="#yq8sg"/></g><g transform="translate(-128 -26)"><use fill="url(#yq8sj)" xlink:href="#yq8si"/></g></g></svg>