<svg xmlns="http://www.w3.org/2000/svg" xmlns:xlink="http://www.w3.org/1999/xlink" width="50" height="35" viewBox="0 0 50 35"><defs><path id="mt09a" d="M135.6 56.3v28.75a5.7 5.7 0 0 0 5.7 5.7h13.3l3.8-21.15-3.8-13.3z"/><path id="mt09c" d="M166 56.3l-3.8 13.3 3.8 21.15h13.3a5.7 5.7 0 0 0 5.7-5.7V56.3h-19z"/><path id="mt09e" d="M154.6 90.75V56.3H166v34.45z"/><path id="mt09g" d="M160.3 90.75V56.3h5.7v34.45z"/><linearGradient id="mt09b" x1="147" x2="147" y1="56.3" y2="90.75" gradientUnits="userSpaceOnUse"><stop offset="0" stop-color="#20b7fa"/><stop offset="1" stop-color="#20ebdd"/></linearGradient><linearGradient id="mt09d" x1="173.6" x2="173.6" y1="56.3" y2="90.75" gradientUnits="userSpaceOnUse"><stop offset="0" stop-color="#20b7fa"/><stop offset="1" stop-color="#20ebdd"/></linearGradient><linearGradient id="mt09f" x1="160.3" x2="160.3" y1="56.3" y2="90.75" gradientUnits="userSpaceOnUse"><stop offset="0" stop-color="#beebff"/><stop offset="1" stop-color="#95fff8"/></linearGradient><linearGradient id="mt09h" x1="163.15" x2="163.15" y1="56.3" y2="90.75" gradientUnits="userSpaceOnUse"><stop offset="0" stop-color="#beebff"/><stop offset="1" stop-color="#95fff8"/></linearGradient></defs><g><g transform="translate(-135 -56)"><use fill="url(#mt09b)" xlink:href="#mt09a"/></g><g transform="translate(-135 -56)"><use fill="url(#mt09d)" xlink:href="#mt09c"/></g><g transform="translate(-135 -56)"><use fill="url(#mt09f)" xlink:href="#mt09e"/></g><g transform="translate(-135 -56)"><use fill="url(#mt09h)" xlink:href="#mt09g"/></g></g></svg>